<svg width="15" height="15" viewBox="0 0 15 15" fill="none" xmlns="http://www.w3.org/2000/svg">
<path d="M7.58804 11.563C7.45471 11.563 7.32971 11.5422 7.21304 11.5005C7.09638 11.4589 6.98804 11.388 6.88804 11.288L2.26304 6.66304C2.07971 6.47971 1.99221 6.25054 2.00054 5.97554C2.00888 5.70054 2.10471 5.47138 2.28804 5.28804C2.47138 5.10471 2.70471 5.01304 2.98804 5.01304C3.27138 5.01304 3.50471 5.10471 3.68804 5.28804L7.58804 9.18804L11.513 5.26304C11.6964 5.07971 11.9255 4.99221 12.2005 5.00054C12.4755 5.00888 12.7047 5.10471 12.888 5.28804C13.0714 5.47138 13.163 5.70471 13.163 5.98804C13.163 6.27138 13.0714 6.50471 12.888 6.68804L8.28804 11.288C8.18804 11.388 8.07971 11.4589 7.96304 11.5005C7.84638 11.5422 7.72138 11.563 7.58804 11.563Z" fill="#3B3B3B"/>
</svg>
