<svg width="56" height="56" viewBox="0 0 56 56" fill="none" xmlns="http://www.w3.org/2000/svg">
<mask id="mask0_38_20" style="mask-type:alpha" maskUnits="userSpaceOnUse" x="0" y="0" width="56" height="56">
<rect width="56" height="56" fill="#D9D9D9"/>
</mask>
<g mask="url(#mask0_38_20)">
<path d="M28 48.3584C27.6111 48.3584 27.232 48.3098 26.8625 48.2126C26.4931 48.1153 26.1333 47.9695 25.7833 47.7751L14.1167 41.4751C13.3389 41.0473 12.7361 40.4737 12.3083 39.7542C11.8806 39.0348 11.6667 38.2278 11.6667 37.3334V26.1334L6.06667 23.0417C5.6389 22.8084 5.32779 22.5167 5.13334 22.1667C4.9389 21.8167 4.84167 21.4278 4.84167 21.0001C4.84167 20.5723 4.9389 20.1834 5.13334 19.8334C5.32779 19.4834 5.6389 19.1917 6.06667 18.9584L25.7833 8.22506C26.1333 8.03061 26.4931 7.88478 26.8625 7.78756C27.232 7.69033 27.6111 7.64172 28 7.64172C28.3889 7.64172 28.7681 7.69033 29.1375 7.78756C29.507 7.88478 29.8667 8.03061 30.2167 8.22506L52.4417 20.3584C52.8306 20.5528 53.132 20.8348 53.3458 21.2042C53.5597 21.5737 53.6667 21.9723 53.6667 22.4001V37.3334C53.6667 37.9945 53.4431 38.5487 52.9958 38.9959C52.5486 39.4431 51.9945 39.6667 51.3333 39.6667C50.6722 39.6667 50.1181 39.4431 49.6708 38.9959C49.2236 38.5487 49 37.9945 49 37.3334V23.5667L44.3333 26.1334V37.3334C44.3333 38.2278 44.1195 39.0348 43.6917 39.7542C43.2639 40.4737 42.6611 41.0473 41.8833 41.4751L30.2167 47.7751C29.8667 47.9695 29.507 48.1153 29.1375 48.2126C28.7681 48.3098 28.3889 48.3584 28 48.3584ZM28 29.6334L43.9833 21.0001L28 12.3667L12.0167 21.0001L28 29.6334ZM28 43.6917L39.6667 37.3917V28.5834L30.275 33.7751C29.925 33.9695 29.5556 34.1153 29.1667 34.2126C28.7778 34.3098 28.3889 34.3584 28 34.3584C27.6111 34.3584 27.2222 34.3098 26.8333 34.2126C26.4445 34.1153 26.075 33.9695 25.725 33.7751L16.3333 28.5834V37.3917L28 43.6917Z" fill="url(#paint0_linear_38_20)"/>
</g>
<defs>
<linearGradient id="paint0_linear_38_20" x1="45.5" y1="12" x2="14" y2="43.5" gradientUnits="userSpaceOnUse">
<stop stop-color="#0167FF"/>
<stop offset="1" stop-color="#287EFF"/>
</linearGradient>
</defs>
</svg>
