<svg width="24" height="25" viewBox="0 0 24 25" fill="none" xmlns="http://www.w3.org/2000/svg">
<mask id="mask0_45_20" style="mask-type:alpha" maskUnits="userSpaceOnUse" x="0" y="0" width="24" height="25">
<rect y="0.125" width="24" height="24" fill="#D9D9D9"/>
</mask>
<g mask="url(#mask0_45_20)">
<path d="M12 22.125C10.6167 22.125 9.31667 21.8625 8.1 21.3375C6.88333 20.8125 5.825 20.1 4.925 19.2C4.025 18.3 3.3125 17.2417 2.7875 16.025C2.2625 14.8083 2 13.5083 2 12.125C2 10.7417 2.2625 9.44167 2.7875 8.225C3.3125 7.00833 4.025 5.95 4.925 5.05C5.825 4.15 6.88333 3.4375 8.1 2.9125C9.31667 2.3875 10.6167 2.125 12 2.125C13.4833 2.125 14.875 2.42917 16.175 3.0375C17.475 3.64583 18.6 4.49167 19.55 5.575L12 13.125V4.125C9.76667 4.125 7.875 4.9 6.325 6.45C4.775 8 4 9.89167 4 12.125C4 14.3583 4.775 16.25 6.325 17.8C7.875 19.35 9.76667 20.125 12 20.125C13.15 20.125 14.25 19.8875 15.3 19.4125C16.35 18.9375 17.25 18.2583 18 17.375V20.125C17.1167 20.7583 16.1667 21.25 15.15 21.6C14.1333 21.95 13.0833 22.125 12 22.125ZM21 18.125C20.7167 18.125 20.4792 18.0292 20.2875 17.8375C20.0958 17.6458 20 17.4083 20 17.125V11.125C20 10.8417 20.0958 10.6042 20.2875 10.4125C20.4792 10.2208 20.7167 10.125 21 10.125C21.2833 10.125 21.5208 10.2208 21.7125 10.4125C21.9042 10.6042 22 10.8417 22 11.125V17.125C22 17.4083 21.9042 17.6458 21.7125 17.8375C21.5208 18.0292 21.2833 18.125 21 18.125ZM21 22.125C20.7167 22.125 20.4792 22.0292 20.2875 21.8375C20.0958 21.6458 20 21.4083 20 21.125C20 20.8417 20.0958 20.6042 20.2875 20.4125C20.4792 20.2208 20.7167 20.125 21 20.125C21.2833 20.125 21.5208 20.2208 21.7125 20.4125C21.9042 20.6042 22 20.8417 22 21.125C22 21.4083 21.9042 21.6458 21.7125 21.8375C21.5208 22.0292 21.2833 22.125 21 22.125Z" fill="url(#paint0_linear_45_20)"/>
</g>
<defs>
<linearGradient id="paint0_linear_45_20" x1="18.6547" y1="4.26578" x2="3.43362" y2="16.9591" gradientUnits="userSpaceOnUse">
<stop stop-color="#0167FF"/>
<stop offset="1" stop-color="#287EFF"/>
</linearGradient>
</defs>
</svg>
