<svg width="24" height="24" viewBox="0 0 24 24" fill="none" xmlns="http://www.w3.org/2000/svg">
<mask id="mask0_44_14" style="mask-type:alpha" maskUnits="userSpaceOnUse" x="0" y="0" width="24" height="24">
<rect width="24" height="24" fill="#D9D9D9"/>
</mask>
<g mask="url(#mask0_44_14)">
<path d="M7 14H10.675C10.8583 13.6167 11.0708 13.2583 11.3125 12.925C11.5542 12.5917 11.825 12.2833 12.125 12H7V14ZM7 18H10.075C10.025 17.6667 10 17.3333 10 17C10 16.6667 10.025 16.3333 10.075 16H7V18ZM5 22C4.45 22 3.97917 21.8042 3.5875 21.4125C3.19583 21.0208 3 20.55 3 20V4C3 3.45 3.19583 2.97917 3.5875 2.5875C3.97917 2.19583 4.45 2 5 2H13L19 8V10.3C18.6833 10.2 18.3583 10.125 18.025 10.075C17.6917 10.025 17.35 10 17 10V9H12V4H5V20H10.675C10.8583 20.3833 11.0708 20.7417 11.3125 21.075C11.5542 21.4083 11.825 21.7167 12.125 22H5ZM17 12C18.3833 12 19.5625 12.4875 20.5375 13.4625C21.5125 14.4375 22 15.6167 22 17C22 18.3833 21.5125 19.5625 20.5375 20.5375C19.5625 21.5125 18.3833 22 17 22C15.6167 22 14.4375 21.5125 13.4625 20.5375C12.4875 19.5625 12 18.3833 12 17C12 15.6167 12.4875 14.4375 13.4625 13.4625C14.4375 12.4875 15.6167 12 17 12ZM17 20C17.1833 20 17.3375 19.9375 17.4625 19.8125C17.5875 19.6875 17.65 19.5333 17.65 19.35C17.65 19.1667 17.5875 19.0125 17.4625 18.8875C17.3375 18.7625 17.1833 18.7 17 18.7C16.8167 18.7 16.6625 18.7625 16.5375 18.8875C16.4125 19.0125 16.35 19.1667 16.35 19.35C16.35 19.5333 16.4125 19.6875 16.5375 19.8125C16.6625 19.9375 16.8167 20 17 20ZM16.55 18.1H17.45V17.85C17.45 17.6667 17.5 17.5042 17.6 17.3625C17.7 17.2208 17.8167 17.0833 17.95 16.95C18.1833 16.75 18.3667 16.5583 18.5 16.375C18.6333 16.1917 18.7 15.9333 18.7 15.6C18.7 15.1167 18.5417 14.7292 18.225 14.4375C17.9083 14.1458 17.5 14 17 14C16.6167 14 16.2708 14.1125 15.9625 14.3375C15.6542 14.5625 15.4333 14.8667 15.3 15.25L16.1 15.6C16.15 15.4 16.2542 15.225 16.4125 15.075C16.5708 14.925 16.7667 14.85 17 14.85C17.25 14.85 17.4458 14.9125 17.5875 15.0375C17.7292 15.1625 17.8 15.35 17.8 15.6C17.8 15.7833 17.75 15.9375 17.65 16.0625C17.55 16.1875 17.4333 16.3167 17.3 16.45C17.2 16.55 17.0958 16.65 16.9875 16.75C16.8792 16.85 16.7833 16.9667 16.7 17.1C16.65 17.2 16.6125 17.3 16.5875 17.4C16.5625 17.5 16.55 17.6167 16.55 17.75V18.1Z" fill="url(#paint0_linear_44_14)"/>
</g>
<defs>
<linearGradient id="paint0_linear_44_14" x1="18.822" y1="4.14078" x2="3.75955" y2="16.0737" gradientUnits="userSpaceOnUse">
<stop stop-color="#0167FF"/>
<stop offset="1" stop-color="#287EFF"/>
</linearGradient>
</defs>
</svg>
