<svg width="24" height="24" viewBox="0 0 24 24" fill="none" xmlns="http://www.w3.org/2000/svg">
<mask id="mask0_37_14" style="mask-type:alpha" maskUnits="userSpaceOnUse" x="0" y="0" width="24" height="24">
<rect width="24" height="24" fill="#D9D9D9"/>
</mask>
<g mask="url(#mask0_37_14)">
<path d="M9.8 16.275C9.6 16.075 9.50417 15.8333 9.5125 15.55C9.52083 15.2667 9.625 15.025 9.825 14.825L11.65 13H4C3.71667 13 3.47917 12.9042 3.2875 12.7125C3.09583 12.5208 3 12.2833 3 12C3 11.7167 3.09583 11.4792 3.2875 11.2875C3.47917 11.0958 3.71667 11 4 11H11.65L9.8 9.15C9.6 8.95 9.5 8.7125 9.5 8.4375C9.5 8.1625 9.6 7.925 9.8 7.725C10 7.525 10.2375 7.425 10.5125 7.425C10.7875 7.425 11.025 7.525 11.225 7.725L14.8 11.3C14.9 11.4 14.9708 11.5083 15.0125 11.625C15.0542 11.7417 15.075 11.8667 15.075 12C15.075 12.1333 15.0542 12.2583 15.0125 12.375C14.9708 12.4917 14.9 12.6 14.8 12.7L11.2 16.3C11.0167 16.4833 10.7875 16.575 10.5125 16.575C10.2375 16.575 10 16.475 9.8 16.275ZM5 21C4.45 21 3.97917 20.8042 3.5875 20.4125C3.19583 20.0208 3 19.55 3 19V16C3 15.7167 3.09583 15.4792 3.2875 15.2875C3.47917 15.0958 3.71667 15 4 15C4.28333 15 4.52083 15.0958 4.7125 15.2875C4.90417 15.4792 5 15.7167 5 16V19H19V5H5V8C5 8.28333 4.90417 8.52083 4.7125 8.7125C4.52083 8.90417 4.28333 9 4 9C3.71667 9 3.47917 8.90417 3.2875 8.7125C3.09583 8.52083 3 8.28333 3 8V5C3 4.45 3.19583 3.97917 3.5875 3.5875C3.97917 3.19583 4.45 3 5 3H19C19.55 3 20.0208 3.19583 20.4125 3.5875C20.8042 3.97917 21 4.45 21 5V19C21 19.55 20.8042 20.0208 20.4125 20.4125C20.0208 20.8042 19.55 21 19 21H5Z" fill="#3B3B3B"/>
</g>
</svg>
