<svg width="53" height="53" viewBox="0 0 53 53" fill="none" xmlns="http://www.w3.org/2000/svg">
<mask id="mask0_41_7" style="mask-type:alpha" maskUnits="userSpaceOnUse" x="0" y="0" width="53" height="53">
<rect width="53" height="53" fill="#D9D9D9"/>
</mask>
<g mask="url(#mask0_41_7)">
<path d="M11.2624 41.7376H41.7374V21.0897L31.9103 11.2626H11.2624V41.7376ZM11.2624 45.8782C10.1237 45.8782 9.14892 45.4728 8.33806 44.6619C7.5272 43.851 7.12177 42.8763 7.12177 41.7376V11.2626C7.12177 10.1239 7.5272 9.14911 8.33806 8.33824C9.14892 7.52738 10.1237 7.12195 11.2624 7.12195H31.9103C32.4624 7.12195 32.9886 7.22756 33.4889 7.43879C33.9893 7.65002 34.4292 7.94926 34.8087 8.33653L44.6634 18.1912C45.0507 18.5708 45.35 19.0107 45.5612 19.511C45.7724 20.0114 45.878 20.5376 45.878 21.0897V41.7376C45.878 42.8763 45.4726 43.851 44.6617 44.6619C43.8509 45.4728 42.8761 45.8782 41.7374 45.8782H11.2624ZM17.8046 37.1553H35.1952C35.7657 37.1553 36.2534 36.9529 36.6582 36.548C37.0631 36.1431 37.2655 35.6555 37.2655 35.085C37.2655 34.5145 37.0631 34.0268 36.6582 33.622C36.2534 33.2171 35.7657 33.0147 35.1952 33.0147H17.8046C17.2341 33.0147 16.7464 33.2171 16.3416 33.622C15.9367 34.0268 15.7343 34.5145 15.7343 35.085C15.7343 35.6555 15.9367 36.1431 16.3416 36.548C16.7464 36.9529 17.2341 37.1553 17.8046 37.1553ZM17.8046 28.5704H35.1952C35.7657 28.5704 36.2534 28.368 36.6582 27.9631C37.0631 27.5582 37.2655 27.0706 37.2655 26.5001C37.2655 25.9296 37.0631 25.4419 36.6582 25.0371C36.2534 24.6322 35.7657 24.4298 35.1952 24.4298H17.8046C17.2341 24.4298 16.7464 24.6322 16.3416 25.0371C15.9367 25.4419 15.7343 25.9296 15.7343 26.5001C15.7343 27.0706 15.9367 27.5582 16.3416 27.9631C16.7464 28.368 17.2341 28.5704 17.8046 28.5704ZM17.8046 19.9855H28.4322C29.0027 19.9855 29.4903 19.7831 29.8952 19.3782C30.3001 18.9733 30.5025 18.4857 30.5025 17.9152C30.5025 17.3447 30.3001 16.857 29.8952 16.4522C29.4903 16.0473 29.0027 15.8449 28.4322 15.8449H17.8046C17.2341 15.8449 16.7464 16.0473 16.3416 16.4522C15.9367 16.857 15.7343 17.3447 15.7343 17.9152C15.7343 18.4857 15.9367 18.9733 16.3416 19.3782C16.7464 19.7831 17.2341 19.9855 17.8046 19.9855Z" fill="url(#paint0_linear_41_7)"/>
</g>
<defs>
<linearGradient id="paint0_linear_41_7" x1="39.3955" y1="11.2704" x2="9.89986" y2="35.8677" gradientUnits="userSpaceOnUse">
<stop stop-color="#0167FF"/>
<stop offset="1" stop-color="#287EFF"/>
</linearGradient>
</defs>
</svg>
